<?xml version="1.0" standalone="no"?>
<svg xmlns:xlink="http://www.w3.org/1999/xlink" id="wave" style="transform:rotate(180deg); transition: 0.3s" viewBox="0 0 1440 130" version="1.1" xmlns="http://www.w3.org/2000/svg"><defs><linearGradient id="sw-gradient-0" x1="0" x2="0" y1="1" y2="0"><stop stop-color="rgba(22, 22, 24, 1)" offset="0%"/><stop stop-color="rgba(22, 22, 24, 1)" offset="100%"/></linearGradient></defs><path style="transform:translate(0, 0px); opacity:1" fill="url(#sw-gradient-0)" d="M0,26L30,30.3C60,35,120,43,180,43.3C240,43,300,35,360,28.2C420,22,480,17,540,26C600,35,660,56,720,60.7C780,65,840,52,900,45.5C960,39,1020,39,1080,47.7C1140,56,1200,74,1260,82.3C1320,91,1380,91,1440,82.3C1500,74,1560,56,1620,49.8C1680,43,1740,48,1800,58.5C1860,69,1920,87,1980,82.3C2040,78,2100,52,2160,49.8C2220,48,2280,69,2340,71.5C2400,74,2460,56,2520,43.3C2580,30,2640,22,2700,17.3C2760,13,2820,13,2880,15.2C2940,17,3000,22,3060,23.8C3120,26,3180,26,3240,26C3300,26,3360,26,3420,32.5C3480,39,3540,52,3600,54.2C3660,56,3720,48,3780,45.5C3840,43,3900,48,3960,41.2C4020,35,4080,17,4140,26C4200,35,4260,69,4290,86.7L4320,104L4320,130L4290,130C4260,130,4200,130,4140,130C4080,130,4020,130,3960,130C3900,130,3840,130,3780,130C3720,130,3660,130,3600,130C3540,130,3480,130,3420,130C3360,130,3300,130,3240,130C3180,130,3120,130,3060,130C3000,130,2940,130,2880,130C2820,130,2760,130,2700,130C2640,130,2580,130,2520,130C2460,130,2400,130,2340,130C2280,130,2220,130,2160,130C2100,130,2040,130,1980,130C1920,130,1860,130,1800,130C1740,130,1680,130,1620,130C1560,130,1500,130,1440,130C1380,130,1320,130,1260,130C1200,130,1140,130,1080,130C1020,130,960,130,900,130C840,130,780,130,720,130C660,130,600,130,540,130C480,130,420,130,360,130C300,130,240,130,180,130C120,130,60,130,30,130L0,130Z"/></svg>