<?xml version="1.0" standalone="no"?>
<svg xmlns:xlink="http://www.w3.org/1999/xlink" id="wave" style="transform:rotate(180deg); transition: 0.3s" viewBox="0 0 1440 310" version="1.1" xmlns="http://www.w3.org/2000/svg"><defs><linearGradient id="sw-gradient-0" x1="0" x2="0" y1="1" y2="0"><stop stop-color="rgba(22, 22, 24, 1)" offset="0%"/><stop stop-color="rgba(22, 22, 24, 1)" offset="100%"/></linearGradient></defs><path style="transform:translate(0, 0px); opacity:1" fill="url(#sw-gradient-0)" d="M0,124L60,124C120,124,240,124,360,139.5C480,155,600,186,720,206.7C840,227,960,238,1080,227.3C1200,217,1320,186,1440,165.3C1560,145,1680,134,1800,113.7C1920,93,2040,62,2160,46.5C2280,31,2400,31,2520,67.2C2640,103,2760,176,2880,217C3000,258,3120,269,3240,258.3C3360,248,3480,217,3600,211.8C3720,207,3840,227,3960,206.7C4080,186,4200,124,4320,129.2C4440,134,4560,207,4680,232.5C4800,258,4920,238,5040,222.2C5160,207,5280,196,5400,165.3C5520,134,5640,83,5760,51.7C5880,21,6000,10,6120,5.2C6240,0,6360,0,6480,20.7C6600,41,6720,83,6840,108.5C6960,134,7080,145,7200,165.3C7320,186,7440,217,7560,237.7C7680,258,7800,269,7920,273.8C8040,279,8160,279,8280,268.7C8400,258,8520,238,8580,227.3L8640,217L8640,310L8580,310C8520,310,8400,310,8280,310C8160,310,8040,310,7920,310C7800,310,7680,310,7560,310C7440,310,7320,310,7200,310C7080,310,6960,310,6840,310C6720,310,6600,310,6480,310C6360,310,6240,310,6120,310C6000,310,5880,310,5760,310C5640,310,5520,310,5400,310C5280,310,5160,310,5040,310C4920,310,4800,310,4680,310C4560,310,4440,310,4320,310C4200,310,4080,310,3960,310C3840,310,3720,310,3600,310C3480,310,3360,310,3240,310C3120,310,3000,310,2880,310C2760,310,2640,310,2520,310C2400,310,2280,310,2160,310C2040,310,1920,310,1800,310C1680,310,1560,310,1440,310C1320,310,1200,310,1080,310C960,310,840,310,720,310C600,310,480,310,360,310C240,310,120,310,60,310L0,310Z"/></svg>